<svg width="29" height="29" viewBox="0 0 29 29" fill="none" xmlns="http://www.w3.org/2000/svg">
<path d="M14.8242 10.2139C13.7059 10.2139 12.6333 10.6582 11.8425 11.449C11.0518 12.2398 10.6075 13.3123 10.6075 14.4306C10.6075 15.549 11.0518 16.6215 11.8425 17.4123C12.6333 18.2031 13.7059 18.6473 14.8242 18.6473C15.9425 18.6473 17.0151 18.2031 17.8058 17.4123C18.5966 16.6215 19.0409 15.549 19.0409 14.4306C19.0409 13.3123 18.5966 12.2398 17.8058 11.449C17.0151 10.6582 15.9425 10.2139 14.8242 10.2139ZM14.8242 7.40282C16.6881 7.40282 18.4756 8.14325 19.7936 9.46122C21.1116 10.7792 21.852 12.5667 21.852 14.4306C21.852 16.2945 21.1116 18.0821 19.7936 19.4001C18.4756 20.718 16.6881 21.4585 14.8242 21.4585C12.9603 21.4585 11.1727 20.718 9.85477 19.4001C8.5368 18.0821 7.79637 16.2945 7.79637 14.4306C7.79637 12.5667 8.5368 10.7792 9.85477 9.46122C11.1727 8.14325 12.9603 7.40282 14.8242 7.40282ZM23.9604 7.05143C23.9604 7.5174 23.7752 7.96429 23.4458 8.29378C23.1163 8.62327 22.6694 8.80838 22.2034 8.80838C21.7374 8.80838 21.2905 8.62327 20.961 8.29378C20.6316 7.96429 20.4464 7.5174 20.4464 7.05143C20.4464 6.58545 20.6316 6.13857 20.961 5.80907C21.2905 5.47958 21.7374 5.29447 22.2034 5.29447C22.6694 5.29447 23.1163 5.47958 23.4458 5.80907C23.7752 6.13857 23.9604 6.58545 23.9604 7.05143ZM14.8242 3.18613C11.3468 3.18613 10.779 3.19597 9.16118 3.26765C8.05921 3.31966 7.31989 3.46724 6.63397 3.7343C6.02396 3.97043 5.58402 4.25295 5.11596 4.72241C4.67603 5.14745 4.33778 5.66636 4.12645 6.24042C3.85939 6.92914 3.71181 7.66706 3.6612 8.76762C3.58812 10.3194 3.57968 10.8619 3.57968 14.4306C3.57968 17.908 3.58952 18.4758 3.6612 20.0937C3.71321 21.1942 3.86079 21.9349 4.12645 22.6195C4.36539 23.2309 4.64651 23.6708 5.11315 24.1375C5.58683 24.6097 6.02677 24.8922 6.63116 25.1256C7.32551 25.394 8.06484 25.543 9.16118 25.5936C10.7129 25.6667 11.2555 25.6751 14.8242 25.6751C18.3016 25.6751 18.8694 25.6653 20.4872 25.5936C21.5864 25.5416 22.3271 25.394 23.013 25.1284C23.6216 24.8908 24.0644 24.6083 24.531 24.1417C25.0047 23.668 25.2872 23.2281 25.5205 22.6237C25.7876 21.9307 25.9366 21.19 25.9872 20.0937C26.0603 18.5419 26.0687 17.9994 26.0687 14.4306C26.0687 10.9533 26.0589 10.3854 25.9872 8.76762C25.9352 7.66847 25.7876 6.92633 25.5205 6.24042C25.3087 5.66695 24.9711 5.14824 24.5324 4.72241C24.1076 4.28225 23.5886 3.94396 23.0144 3.73289C22.3257 3.46583 21.5864 3.31825 20.4872 3.26765C18.9355 3.19456 18.3929 3.18613 14.8242 3.18613ZM14.8242 0.375C18.6431 0.375 19.1196 0.389056 20.6179 0.459334C22.1149 0.529612 23.1339 0.764341 24.0306 1.11292C24.9583 1.46993 25.7398 1.95345 26.5213 2.73354C27.236 3.43617 27.789 4.28611 28.1419 5.22419C28.4891 6.11954 28.7252 7.13998 28.7955 8.6369C28.8616 10.1352 28.8798 10.6117 28.8798 14.4306C28.8798 18.2496 28.8658 18.726 28.7955 20.2244C28.7252 21.7213 28.4891 22.7403 28.1419 23.6371C27.7901 24.5757 27.2369 25.4258 26.5213 26.1277C25.8185 26.8422 24.9686 27.3952 24.0306 27.7484C23.1353 28.0955 22.1149 28.3317 20.6179 28.4019C19.1196 28.468 18.6431 28.4863 14.8242 28.4863C11.0053 28.4863 10.5288 28.4722 9.03046 28.4019C7.53353 28.3317 6.5145 28.0955 5.61775 27.7484C4.67929 27.3962 3.82921 26.8431 3.12709 26.1277C2.41223 25.4252 1.85918 24.5752 1.50648 23.6371C1.1579 22.7417 0.923167 21.7213 0.852888 20.2244C0.786827 18.726 0.768555 18.2496 0.768555 14.4306C0.768555 10.6117 0.78261 10.1352 0.852888 8.6369C0.923167 7.13857 1.1579 6.12094 1.50648 5.22419C1.8582 4.28553 2.41138 3.43536 3.12709 2.73354C3.82941 2.01843 4.67944 1.46534 5.61775 1.11292C6.5145 0.764341 7.53213 0.529612 9.03046 0.459334C10.5288 0.393272 11.0053 0.375 14.8242 0.375Z" fill="#29ABE2"/>
</svg>
