<svg width="350" height="69" viewBox="0 0 350 69" fill="none" xmlns="http://www.w3.org/2000/svg">
<path d="M85.2476 23.9595H89.4642V40.8262H102.114V45.0429H85.2476V23.9595Z" fill="#1A1A1A"/>
<path d="M123.902 26.0679V42.9346H119.685V26.0679H123.902Z" fill="#1A1A1A"/>
<path d="M142.174 45.0429V23.9595H163.257V45.0429H142.174ZM159.041 40.8262V28.1762H146.391V40.8262H159.041Z" fill="#1A1A1A"/>
<path d="M111.251 23.9595V28.1762H132.334V23.9595H111.251ZM111.251 40.8262V45.0429H132.334V40.8262H111.251Z" fill="#1A1A1A"/>
<path d="M173.097 45.0429V23.9595H177.314L189.964 38.9147V23.9595H194.181V45.0429H189.964L177.314 30.5445V45.0429H173.097Z" fill="#1A1A1A"/>
<path d="M204.02 23.9595H225.103V28.1762H208.237V40.8262H225.103V45.0429H204.02V23.9595ZM220.887 36.6095H214.562V32.3929H220.887V36.6095ZM220.887 40.8262V32.3929H225.103V40.8262H220.887Z" fill="#1A1A1A"/>
<path d="M234.943 45.0429V23.9595H256.027V36.6095H239.16V45.0429H234.943ZM239.16 28.1762V32.3929H251.81V28.1762H239.16ZM249.702 36.6095L257.432 45.0429H251.81L244.08 36.6095H249.702Z" fill="#1A1A1A"/>
<path d="M265.866 45.0429V23.9595H286.95V45.0429H265.866ZM282.733 40.8262V28.1762H270.083V40.8262H282.733Z" fill="#1A1A1A"/>
<path d="M301.006 23.9595V40.8262H313.656V23.9595H317.873V45.0429H296.79V23.9595H301.006Z" fill="#1A1A1A"/>
<path d="M328.416 45.0429V23.9595H349.499V36.6095H332.632V45.0429H328.416ZM332.632 28.1762V32.3929H345.282V28.1762H332.632Z" fill="#1A1A1A"/>
<path d="M57.8374 19.7422L59.9458 17.6339V13.4172L55.7291 9.20047H47.2957L38.8623 0.76709H30.4289L21.9956 9.20047H13.5622L9.34549 13.4172V17.6339L11.4538 19.7422L0.912109 30.2839V42.934L26.2123 68.2341H43.079L68.3792 42.934V30.2839L57.8374 19.7422ZM42.3762 55.5841L38.1595 59.8008H31.1317L26.915 55.5841L34.6456 47.8535L42.3762 55.5841ZM51.5124 34.5006V42.934L43.079 51.3674L34.6456 42.934L26.2123 51.3674L17.7789 42.934V34.5006L13.5622 30.2839L30.4289 13.4172H38.8623L55.7291 30.2839L51.5124 34.5006Z" fill="#1A1A1A"/>
<path d="M47.2958 26.0669V30.2836H43.0791V38.717L34.6457 47.1504L26.2123 38.717V30.2836H21.9956V26.0669H30.429V38.0142H38.8624V26.0669H47.2958Z" fill="#1A1A1A"/>
</svg>
