<svg width="14" height="18" viewBox="0 0 14 18" fill="none" xmlns="http://www.w3.org/2000/svg">
<path d="M12.8678 9.44367L1.5622 16.9807C1.48188 17.0342 1.38858 17.0648 1.29222 17.0694C1.19585 17.0741 1.10005 17.0524 1.015 17.0069C0.929948 16.9614 0.858842 16.8936 0.809253 16.8109C0.759664 16.7281 0.733448 16.6335 0.733398 16.537V1.46287C0.733448 1.3664 0.759664 1.27174 0.809253 1.18899C0.858842 1.10624 0.929948 1.03849 1.015 0.992958C1.10005 0.947423 1.19585 0.925809 1.29222 0.930419C1.38858 0.935029 1.48188 0.965689 1.5622 1.01913L12.8678 8.5562C12.9408 8.60491 13.0007 8.67089 13.0422 8.7483C13.0836 8.82571 13.1053 8.91214 13.1053 8.99993C13.1053 9.08773 13.0836 9.17416 13.0422 9.25157C13.0007 9.32898 12.9408 9.39496 12.8678 9.44367Z" fill="#1A1A1A"/>
</svg>
