<svg width="13" height="17" viewBox="0 0 13 17" fill="none" xmlns="http://www.w3.org/2000/svg">
<path d="M12.1326 8.51373L0.828676 16.0507C0.748374 16.1041 0.655081 16.1348 0.558734 16.1394C0.462387 16.144 0.366593 16.1224 0.281557 16.0769C0.19652 16.0313 0.125425 15.9636 0.0758431 15.8808C0.0262612 15.7981 4.98276e-05 15.7034 0 15.6069V0.53305C4.98276e-05 0.43658 0.0262612 0.34193 0.0758431 0.25918C0.125425 0.176431 0.19652 0.108681 0.281557 0.063147C0.366593 0.017613 0.462387 -0.00400033 0.558734 0.000609305C0.655081 0.00521894 0.748374 0.0358791 0.828676 0.0893235L12.1326 7.62627C12.2056 7.67498 12.2655 7.74096 12.3069 7.81837C12.3483 7.89577 12.37 7.98221 12.37 8.07C12.37 8.15779 12.3483 8.24423 12.3069 8.32163C12.2655 8.39904 12.2056 8.46502 12.1326 8.51373V8.51373Z" fill="#29ABE2"/>
</svg>
