<svg width="23" height="29" viewBox="0 0 23 29" fill="none" xmlns="http://www.w3.org/2000/svg">
<path d="M22.2376 15.5923L2.37413 28.8345C2.23303 28.9284 2.06909 28.9823 1.89979 28.9904C1.73048 28.9985 1.56215 28.9605 1.41273 28.8805C1.2633 28.8005 1.13837 28.6815 1.05124 28.5361C0.964115 28.3907 0.918056 28.2244 0.917969 28.0549V1.57035C0.918056 1.40085 0.964115 1.23455 1.05124 1.08916C1.13837 0.943775 1.2633 0.82474 1.41273 0.744737C1.56215 0.664735 1.73048 0.626761 1.89979 0.63486C2.06909 0.642959 2.23303 0.696828 2.37413 0.790729L22.2376 14.033C22.3659 14.1186 22.4711 14.2345 22.5439 14.3705C22.6167 14.5065 22.6548 14.6584 22.6548 14.8126C22.6548 14.9669 22.6167 15.1187 22.5439 15.2547C22.4711 15.3907 22.3659 15.5067 22.2376 15.5923Z" fill="#1A1A1A"/>
</svg>
