<svg width="22" height="29" viewBox="0 0 22 29" fill="none" xmlns="http://www.w3.org/2000/svg">
<path d="M21.408 15.5932L1.54454 28.8355C1.40344 28.9294 1.2395 28.9833 1.0702 28.9914C0.900893 28.9995 0.732563 28.9615 0.583135 28.8815C0.433708 28.8015 0.308778 28.6825 0.221652 28.5371C0.134526 28.3917 0.0884665 28.2254 0.0883789 28.0559V1.57132C0.0884665 1.40183 0.134526 1.23553 0.221652 1.09014C0.308778 0.944751 0.433708 0.825716 0.583135 0.745714C0.732563 0.665711 0.900893 0.627737 1.0702 0.635836C1.2395 0.643935 1.40344 0.697804 1.54454 0.791705L21.408 14.034C21.5363 14.1196 21.6415 14.2355 21.7143 14.3715C21.7871 14.5075 21.8252 14.6594 21.8252 14.8136C21.8252 14.9679 21.7871 15.1197 21.7143 15.2557C21.6415 15.3917 21.5363 15.5077 21.408 15.5932Z" fill="#29ABE2"/>
</svg>
